<svg width="24" height="25" viewBox="0 0 24 25" fill="none" xmlns="http://www.w3.org/2000/svg">
<path d="M16.9482 0.931794C14.7402 0.828846 9.27123 0.833843 7.06123 0.931794C5.11923 1.02275 3.40623 1.49151 2.02523 2.87182C-0.282773 5.17867 0.0122273 8.28711 0.0122273 12.8458C0.0122273 17.5115 -0.247773 20.548 2.02523 22.8198C4.34223 25.1347 7.49723 24.8318 12.0042 24.8318C16.6282 24.8318 18.2242 24.8348 19.8592 24.2021C22.0822 23.3396 23.7602 21.3536 23.9242 17.7863C24.0282 15.5785 24.0222 10.1132 23.9242 7.9043C23.7262 3.69341 21.4652 1.13969 16.9482 0.931794ZM20.4432 21.2936C18.9302 22.8058 16.8312 22.6709 11.9752 22.6709C6.97523 22.6709 4.97023 22.7449 3.50723 21.2786C1.82223 19.6024 2.12723 16.9108 2.12723 12.8298C2.12723 7.3076 1.56023 3.33059 7.10523 3.04673C8.37923 3.00176 8.75423 2.98676 11.9612 2.98676L12.0062 3.01675C17.3352 3.01675 21.5162 2.45903 21.7672 8.00025C21.8242 9.26462 21.8372 9.64443 21.8372 12.8448C21.8362 17.7843 21.9302 19.8003 20.4432 21.2936Z" fill="white"/>
</svg>
