<svg width="24" height="18" viewBox="0 0 24 18" fill="none" xmlns="http://www.w3.org/2000/svg">
<path fill-rule="evenodd" clip-rule="evenodd" d="M21.3903 0.976608C22.4182 1.25332 23.2288 2.06334 23.5055 3.09096C24.0197 4.96794 23.9999 8.88039 23.9999 8.88039C23.9999 8.88039 23.9999 12.7729 23.5057 14.6501C23.2288 15.6775 22.4184 16.4877 21.3903 16.7642C19.5122 17.2584 11.9999 17.2584 11.9999 17.2584C11.9999 17.2584 4.50731 17.2584 2.60961 16.7446C1.58148 16.4679 0.771054 15.6577 0.4942 14.6303C0 12.7729 0 8.86062 0 8.86062C0 8.86062 0 4.96794 0.4942 3.09096C0.770871 2.06352 1.60125 1.23356 2.60943 0.957026C4.48753 0.462891 11.9998 0.462891 11.9998 0.462891C11.9998 0.462891 19.5122 0.462891 21.3903 0.976608ZM15.8549 8.8604L9.60791 12.4566V5.2642L15.8549 8.8604Z" fill="white"/>
</svg>
